<svg xmlns="http://www.w3.org/2000/svg" viewBox="0 0 900 460" role="img" aria-labelledby="title desc"><title id="title">MedTech Product 360 context map</title><desc id="desc">A medical device product at the center connected to product versions, components, suppliers, manufacturing lots, complaints, evidence, and decisions.</desc><defs><linearGradient id="pbg" x1="0" x2="1"><stop stop-color="#f3faf8"/><stop offset="1" stop-color="#edf3f8"/></linearGradient><linearGradient id="pc" x1="0" x2="1"><stop stop-color="#0e6f68"/><stop offset="1" stop-color="#12324a"/></linearGradient></defs><rect width="900" height="460" rx="28" fill="url(#pbg)"/><g stroke="#8db8b8" stroke-width="3" stroke-dasharray="7 8"><path d="M450 230 160 90M450 230 450 70M450 230 740 90M450 230 160 370M450 230 740 370"/></g><g font-family="Arial,sans-serif" text-anchor="middle"><circle cx="450" cy="230" r="105" fill="url(#pc)"/><path d="M405 233h90M420 203h60M420 263h60" stroke="#dff4ef" stroke-width="9" stroke-linecap="round"/><text x="450" y="315" fill="#fff" font-size="22" font-weight="700">Product 360</text><g fill="#fff" stroke="#b9d4d6" stroke-width="3"><rect x="72" y="48" width="176" height="84" rx="16"/><rect x="362" y="28" width="176" height="84" rx="16"/><rect x="652" y="48" width="176" height="84" rx="16"/><rect x="72" y="328" width="176" height="84" rx="16"/><rect x="652" y="328" width="176" height="84" rx="16"/></g><g fill="#102a3b" font-size="17" font-weight="700"><text x="160" y="84">Versions</text><text x="160" y="106" font-size="12" font-weight="400">revision + scope</text><text x="450" y="64">Components</text><text x="450" y="86" font-size="12" font-weight="400">BOM + configuration</text><text x="740" y="84">Suppliers</text><text x="740" y="106" font-size="12" font-weight="400">source relationships</text><text x="160" y="364">Lots + sites</text><text x="160" y="386" font-size="12" font-weight="400">manufacturing context</text><text x="740" y="364">Signals + evidence</text><text x="740" y="386" font-size="12" font-weight="400">field experience</text></g></g></svg>
